<svg width="784" height="865" viewBox="0 0 784 865" fill="none" xmlns="http://www.w3.org/2000/svg">
<g filter="url(#filter0_f_51_349)">
<path d="M329 373.5C329 432.318 281.318 480 222.5 480C163.682 480 116 432.318 116 373.5C116 314.682 163.682 267 222.5 267C281.318 267 329 314.682 329 373.5Z" fill="#219EBC"/>
</g>
<g filter="url(#filter1_b_51_349)">
<path d="M372 790C372 831.421 338.421 865 297 865C255.579 865 222 831.421 222 790C222 748.579 255.579 715 297 715C338.421 715 372 748.579 372 790Z" fill="#FFB703"/>
</g>
<g filter="url(#filter2_f_51_349)">
<path d="M821.724 185.68C821.724 327.851 865.99 694.555 564.081 443.104C408.92 344.929 648.31 228.997 306.437 185.68C-35.4356 142.364 -243.533 -92.1637 564.081 -71.743C865.601 -64.119 821.724 43.5094 821.724 185.68Z" fill="#023047"/>
</g>
<g filter="url(#filter3_b_51_349)">
<circle cx="359" cy="529" r="150" fill="#8ECAE6"/>
</g>
<g style="mix-blend-mode:multiply" filter="url(#filter4_b_51_349)">
<circle cx="653.168" cy="548.168" r="200" transform="rotate(-50.3144 653.168 548.168)" fill="url(#paint0_linear_51_349)"/>
</g>
<defs>
<filter id="filter0_f_51_349" x="112" y="263" width="221" height="221" filterUnits="userSpaceOnUse" color-interpolation-filters="sRGB">
<feFlood flood-opacity="0" result="BackgroundImageFix"/>
<feBlend mode="normal" in="SourceGraphic" in2="BackgroundImageFix" result="shape"/>
<feGaussianBlur stdDeviation="2" result="effect1_foregroundBlur_51_349"/>
</filter>
<filter id="filter1_b_51_349" x="218" y="711" width="158" height="158" filterUnits="userSpaceOnUse" color-interpolation-filters="sRGB">
<feFlood flood-opacity="0" result="BackgroundImageFix"/>
<feGaussianBlur in="BackgroundImageFix" stdDeviation="2"/>
<feComposite in2="SourceAlpha" operator="in" result="effect1_backgroundBlur_51_349"/>
<feBlend mode="normal" in="SourceGraphic" in2="effect1_backgroundBlur_51_349" result="shape"/>
</filter>
<filter id="filter2_f_51_349" x="0" y="-77" width="828" height="610" filterUnits="userSpaceOnUse" color-interpolation-filters="sRGB">
<feFlood flood-opacity="0" result="BackgroundImageFix"/>
<feBlend mode="normal" in="SourceGraphic" in2="BackgroundImageFix" result="shape"/>
<feGaussianBlur stdDeviation="2" result="effect1_foregroundBlur_51_349"/>
</filter>
<filter id="filter3_b_51_349" x="205" y="375" width="308" height="308" filterUnits="userSpaceOnUse" color-interpolation-filters="sRGB">
<feFlood flood-opacity="0" result="BackgroundImageFix"/>
<feGaussianBlur in="BackgroundImageFix" stdDeviation="2"/>
<feComposite in2="SourceAlpha" operator="in" result="effect1_backgroundBlur_51_349"/>
<feBlend mode="normal" in="SourceGraphic" in2="effect1_backgroundBlur_51_349" result="shape"/>
</filter>
<filter id="filter4_b_51_349" x="449.163" y="344.163" width="408.011" height="408.01" filterUnits="userSpaceOnUse" color-interpolation-filters="sRGB">
<feFlood flood-opacity="0" result="BackgroundImageFix"/>
<feGaussianBlur in="BackgroundImageFix" stdDeviation="2"/>
<feComposite in2="SourceAlpha" operator="in" result="effect1_backgroundBlur_51_349"/>
<feBlend mode="normal" in="SourceGraphic" in2="effect1_backgroundBlur_51_349" result="shape"/>
</filter>
<linearGradient id="paint0_linear_51_349" x1="653.168" y1="348.168" x2="653.168" y2="748.168" gradientUnits="userSpaceOnUse">
<stop stop-color="#FB8500"/>
<stop offset="0.436667" stop-color="#FB8500" stop-opacity="0.953333"/>
<stop offset="0.9999" stop-color="#FB8500" stop-opacity="0.0479489"/>
<stop offset="1" stop-color="#FB8500" stop-opacity="0"/>
</linearGradient>
</defs>
</svg>
